<svg width="18" height="17" viewBox="0 0 18 17" fill="none" xmlns="http://www.w3.org/2000/svg">
<path d="M16.4545 16.3333L10.4818 10.6228C10.0078 10.9854 9.46264 11.2724 8.8464 11.4839C8.23017 11.6954 7.57443 11.8012 6.8792 11.8012C5.1569 11.8012 3.69943 11.2307 2.50678 10.0898C1.31413 8.94893 0.71749 7.55544 0.716858 5.90936C0.716226 4.26328 1.31287 2.86979 2.50678 1.72889C3.70069 0.587996 5.15817 0.0175476 6.8792 0.0175476C8.60023 0.0175476 10.058 0.587996 11.2526 1.72889C12.4471 2.86979 13.0434 4.26328 13.0415 5.90936C13.0415 6.57408 12.9309 7.20103 12.7097 7.79021C12.4885 8.37939 12.1883 8.90059 11.8091 9.35381L17.7818 15.0643L16.4545 16.3333ZM6.8792 9.98831C8.06426 9.98831 9.07172 9.5919 9.90159 8.79907C10.7314 8.00624 11.1461 7.04301 11.1454 5.90936C11.1448 4.77572 10.7302 3.81278 9.90159 3.02056C9.07299 2.22834 8.06553 1.83162 6.8792 1.83041C5.69287 1.8292 4.68572 2.22592 3.85775 3.02056C3.02979 3.8152 2.61486 4.77813 2.61296 5.90936C2.61107 7.04059 3.026 8.00382 3.85775 8.79907C4.68951 9.59431 5.69666 9.99073 6.8792 9.98831Z" fill="black" fill-opacity="0.3"/>
</svg>
